# xmcd
#
# Track frame offsets:
#	150
#	14535
#	24933
#	40354
#	62725
#	77014
#	98052
#	111881
#	134402
#	150507
#	168281
#	191061
#
# Disc length: 2815 seconds
#
# Revision: 0
# Processed by: cddbd v1.5.1PL2 Copyright (c) Steve Scherf et al.
# Submitted via: dBpowerAMP V4.0
#
DISCID=930afd0c
DTITLE=The Wizard and Oz - A Piece Of Work
DYEAR=1900
DGENRE=Blues
TTITLE0=Lot Of Living
TTITLE1=Beginning To See The Light
TTITLE2=We're All Alone
TTITLE3=I'm Counting On You
TTITLE4=All Of Me
TTITLE5=Walking In Memphis
TTITLE6=Straighten Up And Fly Right
TTITLE7=At Last
TTITLE8=Route 66
TTITLE9=Piece Of Work
TTITLE10=I'd Rather Go Blind
TTITLE11=Call Me The Breeze
EXTD=
EXTT0=
EXTT1=
EXTT2=
EXTT3=
EXTT4=
EXTT5=
EXTT6=
EXTT7=
EXTT8=
EXTT9=
EXTT10=
EXTT11=
PLAYORDER=
